<svg xmlns="http://www.w3.org/2000/svg" style="display:none" aria-hidden="true">
<!--
  Google Material Symbols – Outlined / Fill=1 / Weight=400 / 24px
  Lizenz: Apache 2.0  https://github.com/google/material-design-icons
  Koordinatensystem: viewBox="0 -960 960 960" (960×960-Raster)
-->

  <!-- ── Navigation ──────────────────────────────────────────────────────── -->

  <!-- https://raw.githubusercontent.com/google/material-design-icons/master/symbols/web/home/materialsymbolsoutlined/home_fill1_24px.svg -->
  <symbol id="icon-home" viewBox="0 -960 960 960">
    <path d="M160-120v-480l320-240 320 240v480H560v-280H400v280H160Z"/>
  </symbol>

  <!-- https://raw.githubusercontent.com/google/material-design-icons/master/symbols/web/settings/materialsymbolsoutlined/settings_fill1_24px.svg -->
  <symbol id="icon-settings" viewBox="0 -960 960 960">
    <path d="m370-80-16-128q-13-5-24.5-12T307-235l-119 50L78-375l103-78q-1-7-1-13.5v-27q0-6.5 1-13.5L78-585l110-190 119 50q11-8 23-15t24-12l16-128h220l16 128q13 5 24.5 12t22.5 15l119-50 110 190-103 78q1 7 1 13.5v27q0 6.5-2 13.5l103 78-110 190-118-50q-11 8-23 15t-24 12L590-80H370Zm112-260q58 0 99-41t41-99q0-58-41-99t-99-41q-59 0-99.5 41T342-480q0 58 40.5 99t99.5 41Z"/>
  </symbol>

  <!-- https://raw.githubusercontent.com/google/material-design-icons/master/symbols/web/list/materialsymbolsoutlined/list_fill1_24px.svg -->
  <symbol id="icon-list" viewBox="0 -960 960 960">
    <path d="M280-600v-80h560v80H280Zm0 160v-80h560v80H280Zm0 160v-80h560v80H280ZM160-600q-17 0-28.5-11.5T120-640q0-17 11.5-28.5T160-680q17 0 28.5 11.5T200-640q0 17-11.5 28.5T160-600Zm0 160q-17 0-28.5-11.5T120-480q0-17 11.5-28.5T160-520q17 0 28.5 11.5T200-480q0 17-11.5 28.5T160-440Zm0 160q-17 0-28.5-11.5T120-320q0-17 11.5-28.5T160-360q17 0 28.5 11.5T200-320q0 17-11.5 28.5T160-280Z"/>
  </symbol>

  <!-- https://raw.githubusercontent.com/google/material-design-icons/master/symbols/web/bar_chart/materialsymbolsoutlined/bar_chart_fill1_24px.svg -->
  <symbol id="icon-bar-chart" viewBox="0 -960 960 960">
    <path d="M640-160v-280h160v280H640Zm-240 0v-640h160v640H400Zm-240 0v-440h160v440H160Z"/>
  </symbol>

  <!-- alias -->
  <symbol id="icon-chart" viewBox="0 -960 960 960">
    <path d="M640-160v-280h160v280H640Zm-240 0v-640h160v640H400Zm-240 0v-440h160v440H160Z"/>
  </symbol>

  <!-- https://raw.githubusercontent.com/google/material-design-icons/master/symbols/web/schedule/materialsymbolsoutlined/schedule_fill1_24px.svg -->
  <symbol id="icon-clock" viewBox="0 -960 960 960">
    <path d="m612-292 56-56-148-148v-184h-80v216l172 172ZM480-80q-83 0-156-31.5T197-197q-54-54-85.5-127T80-480q0-83 31.5-156T197-763q54-54 127-85.5T480-880q83 0 156 31.5T763-763q54 54 85.5 127T880-480q0 83-31.5 156T763-197q-54 54-127 85.5T480-80Z"/>
  </symbol>

  <!-- https://raw.githubusercontent.com/google/material-design-icons/master/symbols/web/warning/materialsymbolsoutlined/warning_fill1_24px.svg -->
  <symbol id="icon-alert" viewBox="0 -960 960 960">
    <path d="m40-120 440-760 440 760H40Zm440-120q17 0 28.5-11.5T520-280q0-17-11.5-28.5T480-320q-17 0-28.5 11.5T440-280q0 17 11.5 28.5T480-240Zm-40-120h80v-200h-80v200Z"/>
  </symbol>

  <!-- https://raw.githubusercontent.com/google/material-design-icons/master/symbols/web/monitor/materialsymbolsoutlined/monitor_fill1_24px.svg -->
  <symbol id="icon-monitor" viewBox="0 -960 960 960">
    <path d="M240-120v-80l40-40H160q-33 0-56.5-23.5T80-320v-440q0-33 23.5-56.5T160-840h640q33 0 56.5 23.5T880-760v440q0 33-23.5 56.5T800-240H680l40 40v80H240Z"/>
  </symbol>

  <!-- https://raw.githubusercontent.com/google/material-design-icons/master/symbols/web/archive/materialsymbolsoutlined/archive_fill1_24px.svg -->
  <symbol id="icon-archive" viewBox="0 -960 960 960">
    <path d="m480-240 160-160-56-56-64 64v-168h-80v168l-64-64-56 56 160 160ZM200-120q-33 0-56.5-23.5T120-200v-499q0-14 4.5-27t13.5-24l50-61q11-14 27.5-21.5T250-840h460q18 0 34.5 7.5T772-811l50 61q9 11 13.5 24t4.5 27v499q0 33-23.5 56.5T760-120H200Zm16-600h528l-34-40H250l-34 40Z"/>
  </symbol>

  <!-- https://raw.githubusercontent.com/google/material-design-icons/master/symbols/web/search/materialsymbolsoutlined/search_fill1_24px.svg -->
  <symbol id="icon-search" viewBox="0 -960 960 960">
    <path d="M784-120 532-372q-30 24-69 38t-83 14q-109 0-184.5-75.5T120-580q0-109 75.5-184.5T380-840q109 0 184.5 75.5T640-580q0 44-14 83t-38 69l252 252-56 56ZM380-400q75 0 127.5-52.5T560-580q0-75-52.5-127.5T380-760q-75 0-127.5 52.5T200-580q0 75 52.5 127.5T380-400Z"/>
  </symbol>

  <!-- https://raw.githubusercontent.com/google/material-design-icons/master/symbols/web/database/materialsymbolsoutlined/database_fill1_24px.svg -->
  <symbol id="icon-database" viewBox="0 -960 960 960">
    <path d="M480-520q150 0 255-47t105-113q0-66-105-113t-255-47q-150 0-255 47T120-680q0 66 105 113t255 47Zm0 100q41 0 102.5-8.5T701-456q57-19 98-49.5t41-74.5v100q0 44-41 74.5T701-356q-57 19-118.5 27.5T480-320q-41 0-102.5-8.5T259-356q-57-19-98-49.5T120-480v-100q0 44 41 74.5t98 49.5q57 19 118.5 27.5T480-420Zm0 200q41 0 102.5-8.5T701-256q57-19 98-49.5t41-74.5v100q0 44-41 74.5T701-156q-57 19-118.5 27.5T480-120q-41 0-102.5-8.5T259-156q-57-19-98-49.5T120-280v-100q0 44 41 74.5t98 49.5q57 19 118.5 27.5T480-220Z"/>
  </symbol>

  <!-- https://raw.githubusercontent.com/google/material-design-icons/master/symbols/web/group/materialsymbolsoutlined/group_fill1_24px.svg -->
  <symbol id="icon-users" viewBox="0 -960 960 960">
    <path d="M40-160v-112q0-34 17.5-62.5T104-378q62-31 126-46.5T360-440q66 0 130 15.5T616-378q29 15 46.5 43.5T680-272v112H40Zm720 0v-120q0-44-24.5-84.5T666-434q51 6 96 20.5t84 35.5q36 20 55 44.5t19 53.5v120H760ZM360-480q-66 0-113-47t-47-113q0-66 47-113t113-47q66 0 113 47t47 113q0 66-47 113t-113 47Zm400-160q0 66-47 113t-113 47q-11 0-28-2.5t-28-5.5q27-32 41.5-71t14.5-81q0-42-14.5-81T544-792q14-5 28-6.5t28-1.5q66 0 113 47t47 113Z"/>
  </symbol>

  <!-- https://raw.githubusercontent.com/google/material-design-icons/master/symbols/web/dns/materialsymbolsoutlined/dns_fill1_24px.svg -->
  <symbol id="icon-server" viewBox="0 -960 960 960">
    <path d="M300-720q-25 0-42.5 17.5T240-660q0 25 17.5 42.5T300-600q25 0 42.5-17.5T360-660q0-25-17.5-42.5T300-720Zm0 400q-25 0-42.5 17.5T240-260q0 25 17.5 42.5T300-200q25 0 42.5-17.5T360-260q0-25-17.5-42.5T300-320ZM160-840h640q17 0 28.5 11.5T840-800v280q0 17-11.5 28.5T800-480H160q-17 0-28.5-11.5T120-520v-280q0-17 11.5-28.5T160-840Zm0 400h640q17 0 28.5 11.5T840-400v280q0 17-11.5 28.5T800-80H160q-17 0-28.5-11.5T120-120v-280q0-17 11.5-28.5T160-440Z"/>
  </symbol>

  <!-- https://raw.githubusercontent.com/google/material-design-icons/master/symbols/web/notifications/materialsymbolsoutlined/notifications_fill1_24px.svg -->
  <symbol id="icon-bell" viewBox="0 -960 960 960">
    <path d="M160-200v-80h80v-280q0-83 50-147.5T420-792v-28q0-25 17.5-42.5T480-880q25 0 42.5 17.5T540-820v28q80 20 130 84.5T720-560v280h80v80H160ZM480-80q-33 0-56.5-23.5T400-160h160q0 33-23.5 56.5T480-80Z"/>
  </symbol>

  <!-- https://raw.githubusercontent.com/google/material-design-icons/master/symbols/web/shield/materialsymbolsoutlined/shield_fill1_24px.svg -->
  <symbol id="icon-shield" viewBox="0 -960 960 960">
    <path d="M480-80q-139-35-229.5-159.5T160-516v-244l320-120 320 120v244q0 152-90.5 276.5T480-80Z"/>
  </symbol>

  <!-- https://raw.githubusercontent.com/google/material-design-icons/master/symbols/web/info/materialsymbolsoutlined/info_fill1_24px.svg -->
  <symbol id="icon-default" viewBox="0 -960 960 960">
    <path d="M440-280h80v-240h-80v240Zm40-320q17 0 28.5-11.5T520-640q0-17-11.5-28.5T480-680q-17 0-28.5 11.5T440-640q0 17 11.5 28.5T480-600Zm0 520q-83 0-156-31.5T197-197q-54-54-85.5-127T80-480q0-83 31.5-156T197-763q54-54 127-85.5T480-880q83 0 156 31.5T763-763q54 54 85.5 127T880-480q0 83-31.5 156T763-197q-54 54-127 85.5T480-80Z"/>
  </symbol>

  <!-- https://raw.githubusercontent.com/google/material-design-icons/master/symbols/web/dark_mode/materialsymbolsoutlined/dark_mode_fill1_24px.svg -->

  <!-- https://raw.githubusercontent.com/google/material-design-icons/master/symbols/web/light_mode/materialsymbolsoutlined/light_mode_fill1_24px.svg -->

  <!-- ── UI-Aktions-Icons ─────────────────────────────────────────────────── -->

  <!-- https://raw.githubusercontent.com/google/material-design-icons/master/symbols/web/menu/materialsymbolsoutlined/menu_fill1_24px.svg -->
  <symbol id="icon-hamburger" viewBox="0 -960 960 960">
    <path d="M120-240v-80h720v80H120Zm0-200v-80h720v80H120Zm0-200v-80h720v80H120Z"/>
  </symbol>

  <!-- https://raw.githubusercontent.com/google/material-design-icons/master/symbols/web/edit/materialsymbolsoutlined/edit_fill1_24px.svg -->
  <symbol id="icon-edit" viewBox="0 -960 960 960">
    <path d="M120-120v-170l528-527q12-11 26.5-17t30.5-6q16 0 31 6t26 18l55 56q12 11 17.5 26t5.5 30q0 16-5.5 30.5T817-647L290-120H120Zm584-528 56-56-56-56-56 56 56 56Z"/>
  </symbol>

  <!-- https://raw.githubusercontent.com/google/material-design-icons/master/symbols/web/delete/materialsymbolsoutlined/delete_fill1_24px.svg -->
  <symbol id="icon-trash" viewBox="0 -960 960 960">
    <path d="M280-120q-33 0-56.5-23.5T200-200v-520h-40v-80h200v-40h240v40h200v80h-40v520q0 33-23.5 56.5T680-120H280Zm80-160h80v-360h-80v360Zm160 0h80v-360h-80v360Z"/>
  </symbol>

  <!-- https://raw.githubusercontent.com/google/material-design-icons/master/symbols/web/add/materialsymbolsoutlined/add_fill1_24px.svg -->
  <symbol id="icon-plus" viewBox="0 -960 960 960">
    <path d="M440-440H200v-80h240v-240h80v240h240v80H520v240h-80v-240Z"/>
  </symbol>

  <!-- https://raw.githubusercontent.com/google/material-design-icons/master/symbols/web/remove/materialsymbolsoutlined/remove_fill1_24px.svg -->
  <symbol id="icon-minus" viewBox="0 -960 960 960">
    <path d="M200-440v-80h560v80H200Z"/>
  </symbol>

  <!-- https://raw.githubusercontent.com/google/material-design-icons/master/symbols/web/close/materialsymbolsoutlined/close_fill1_24px.svg -->
  <symbol id="icon-close" viewBox="0 -960 960 960">
    <path d="m256-200-56-56 224-224-224-224 56-56 224 224 224-224 56 56-224 224 224 224-56 56-224-224-224 224Z"/>
  </symbol>

  <!-- https://raw.githubusercontent.com/google/material-design-icons/master/symbols/web/refresh/materialsymbolsoutlined/refresh_fill1_24px.svg -->
  <symbol id="icon-refresh" viewBox="0 -960 960 960">
    <path d="M480-160q-134 0-227-93t-93-227q0-134 93-227t227-93q69 0 132 28.5T720-690v-110h80v280H520v-80h168q-32-56-87.5-88T480-720q-100 0-170 70t-70 170q0 100 70 170t170 70q77 0 139-44t87-116h84q-28 106-114 173t-196 67Z"/>
  </symbol>

  <!-- alias -->
  <symbol id="icon-refresh-lg" viewBox="0 -960 960 960">
    <path d="M480-160q-134 0-227-93t-93-227q0-134 93-227t227-93q69 0 132 28.5T720-690v-110h80v280H520v-80h168q-32-56-87.5-88T480-720q-100 0-170 70t-70 170q0 100 70 170t170 70q77 0 139-44t87-116h84q-28 106-114 173t-196 67Z"/>
  </symbol>

  <!-- https://raw.githubusercontent.com/google/material-design-icons/master/symbols/web/play_arrow/materialsymbolsoutlined/play_arrow_fill1_24px.svg -->
  <symbol id="icon-play" viewBox="0 -960 960 960">
    <path d="M320-200v-560l440 280-440 280Z"/>
  </symbol>

  <!-- https://raw.githubusercontent.com/google/material-design-icons/master/symbols/web/bug_report/materialsymbolsoutlined/bug_report_fill1_24px.svg -->
  <symbol id="icon-play-debug" viewBox="0 -960 960 960">
    <path d="M480-120q-65 0-120.5-32T272-240H160v-80h84q-3-20-3.5-40t-.5-40h-80v-80h80q0-20 .5-40t3.5-40h-84v-80h112q14-23 31.5-43t40.5-35l-64-66 56-56 86 86q28-9 57-9t57 9l88-86 56 56-66 66q23 15 41.5 34.5T688-640h112v80h-84q3 20 3.5 40t.5 40h80v80h-80q0 20-.5 40t-3.5 40h84v80H688q-32 56-87.5 88T480-120Zm-80-200h160v-80H400v80Zm0-160h160v-80H400v80Z"/>
  </symbol>

  <!-- https://raw.githubusercontent.com/google/material-design-icons/master/symbols/web/description/materialsymbolsoutlined/description_fill1_24px.svg -->
  <symbol id="icon-file-text" viewBox="0 -960 960 960">
    <path d="M320-240h320v-80H320v80Zm0-160h320v-80H320v80ZM240-80q-33 0-56.5-23.5T160-160v-640q0-33 23.5-56.5T240-880h320l240 240v480q0 33-23.5 56.5T720-80H240Zm280-520h200L520-800v200Z"/>
  </symbol>

  <!-- https://raw.githubusercontent.com/google/material-design-icons/master/symbols/web/power_settings_new/materialsymbolsoutlined/power_settings_new_fill1_24px.svg -->
  <symbol id="icon-power-on" viewBox="0 -960 960 960">
    <path d="M440-440v-400h80v400h-80Zm40 320q-74 0-139.5-28.5T226-226q-49-49-77.5-114.5T120-480q0-80 33-151t93-123l58 58q-50 38-77 95t-27 121q0 116 82 198t198 82q117 0 198.5-82T760-480q0-64-26.5-121T656-696l58-58q60 52 93 123t33 151q0 74-28.5 139.5t-77 114.5q-48.5 49-114 77.5T480-120Z"/>
  </symbol>

  <!-- https://raw.githubusercontent.com/google/material-design-icons/master/symbols/web/power_off/materialsymbolsoutlined/power_off_fill1_24px.svg -->
  <symbol id="icon-power-off" viewBox="0 -960 960 960">
    <path d="M380-120v-120L240-380v-220q0-24 11-45t32-32v112L56-792l56-56 736 736-56 56-198-198-14 14v120H380Zm306-268L320-754v-86h80v160h160v-160h80v200l-40-40h40q33 0 56.5 23.5T720-600v178l-34 34Z"/>
  </symbol>

  <!-- https://raw.githubusercontent.com/google/material-design-icons/master/symbols/web/bug_report/materialsymbolsoutlined/bug_report_fill1_24px.svg -->
  <symbol id="icon-bug" viewBox="0 -960 960 960">
    <path d="M480-120q-65 0-120.5-32T272-240H160v-80h84q-3-20-3.5-40t-.5-40h-80v-80h80q0-20 .5-40t3.5-40h-84v-80h112q14-23 31.5-43t40.5-35l-64-66 56-56 86 86q28-9 57-9t57 9l88-86 56 56-66 66q23 15 41.5 34.5T688-640h112v80h-84q3 20 3.5 40t.5 40h80v80h-80q0 20-.5 40t-3.5 40h84v80H688q-32 56-87.5 88T480-120Zm-80-200h160v-80H400v80Zm0-160h160v-80H400v80Z"/>
  </symbol>

  <!-- https://raw.githubusercontent.com/google/material-design-icons/master/symbols/web/terminal/materialsymbolsoutlined/terminal_fill1_24px.svg -->
  <symbol id="icon-terminal" viewBox="0 -960 960 960">
    <path d="M160-160q-33 0-56.5-23.5T80-240v-480q0-33 23.5-56.5T160-800h640q33 0 56.5 23.5T880-720v480q0 33-23.5 56.5T800-160H160Zm0-80h640v-400H160v400Zm140-40-56-56 103-104-104-104 57-56 160 160-160 160Zm180 0v-80h240v80H480Z"/>
  </symbol>

  <!-- https://raw.githubusercontent.com/google/material-design-icons/master/symbols/web/open_in_new/materialsymbolsoutlined/open_in_new_fill1_24px.svg -->
  <symbol id="icon-external-link" viewBox="0 -960 960 960">
    <path d="M200-120q-33 0-56.5-23.5T120-200v-560q0-33 23.5-56.5T200-840h280v80H200v560h560v-280h80v280q0 33-23.5 56.5T760-120H200Zm188-212-56-56 372-372H560v-80h280v280h-80v-144L388-332Z"/>
  </symbol>

  <!-- https://raw.githubusercontent.com/google/material-design-icons/master/symbols/web/visibility/materialsymbolsoutlined/visibility_fill1_24px.svg -->
  <symbol id="icon-eye" viewBox="0 -960 960 960">
    <path d="M480-320q75 0 127.5-52.5T660-500q0-75-52.5-127.5T480-680q-75 0-127.5 52.5T300-500q0 75 52.5 127.5T480-320Zm0-72q-45 0-76.5-31.5T372-500q0-45 31.5-76.5T480-608q45 0 76.5 31.5T588-500q0 45-31.5 76.5T480-392Zm0 192q-146 0-266-81.5T40-500q54-137 174-218.5T480-800q146 0 266 81.5T920-500q-54 137-174 218.5T480-200Z"/>
  </symbol>

  <!-- https://raw.githubusercontent.com/google/material-design-icons/master/symbols/web/calendar_month/materialsymbolsoutlined/calendar_month_fill1_24px.svg -->
  <symbol id="icon-calendar" viewBox="0 -960 960 960">
    <path d="M480-400q-17 0-28.5-11.5T440-440q0-17 11.5-28.5T480-480q17 0 28.5 11.5T520-440q0 17-11.5 28.5T480-400Zm-160 0q-17 0-28.5-11.5T280-440q0-17 11.5-28.5T320-480q17 0 28.5 11.5T360-440q0 17-11.5 28.5T320-400Zm320 0q-17 0-28.5-11.5T600-440q0-17 11.5-28.5T640-480q17 0 28.5 11.5T680-440q0 17-11.5 28.5T640-400ZM480-240q-17 0-28.5-11.5T440-280q0-17 11.5-28.5T480-320q17 0 28.5 11.5T520-280q0 17-11.5 28.5T480-240Zm-160 0q-17 0-28.5-11.5T280-280q0-17 11.5-28.5T320-320q17 0 28.5 11.5T360-280q0 17-11.5 28.5T320-240Zm320 0q-17 0-28.5-11.5T600-280q0-17 11.5-28.5T640-320q17 0 28.5 11.5T680-280q0 17-11.5 28.5T640-240ZM200-80q-33 0-56.5-23.5T120-160v-560q0-33 23.5-56.5T200-800h40v-80h80v80h320v-80h80v80h40q33 0 56.5 23.5T840-720v560q0 33-23.5 56.5T760-80H200Zm0-80h560v-400H200v400Z"/>
  </symbol>

  <!-- https://raw.githubusercontent.com/google/material-design-icons/master/symbols/web/info/materialsymbolsoutlined/info_fill1_24px.svg -->
  <symbol id="icon-info" viewBox="0 -960 960 960">
    <path d="M440-280h80v-240h-80v240Zm40-320q17 0 28.5-11.5T520-640q0-17-11.5-28.5T480-680q-17 0-28.5 11.5T440-640q0 17 11.5 28.5T480-600Zm0 520q-83 0-156-31.5T197-197q-54-54-85.5-127T80-480q0-83 31.5-156T197-763q54-54 127-85.5T480-880q83 0 156 31.5T763-763q54 54 85.5 127T880-480q0 83-31.5 156T763-197q-54 54-127 85.5T480-80Z"/>
  </symbol>

</svg>
